<?xml version="1.0"?>
<svg xmlns="http://www.w3.org/2000/svg" xmlns:xlink="http://www.w3.org/1999/xlink" xmlns:svgjs="http://svgjs.com/svgjs" version="1.1" width="512" height="512" x="0" y="0" viewBox="0 0 512 512" style="enable-background:new 0 0 512 512" xml:space="preserve" class=""><g><g xmlns="http://www.w3.org/2000/svg"><circle cx="80" cy="432" r="8" fill="#c1d2f0" data-original="#000000" style=""/><circle cx="400" cy="432" r="8" fill="#c1d2f0" data-original="#000000" style=""/><path d="M496,72H412a28.031,28.031,0,0,0-28,28V360H367.6a20.248,20.248,0,0,0,.4-4V220a20.02,20.02,0,0,0-20-20H287.6a20.248,20.248,0,0,0,.4-4V60a20.02,20.02,0,0,0-20-20H132a20.02,20.02,0,0,0-20,20V196a20.248,20.248,0,0,0,.4,4H52a20.02,20.02,0,0,0-20,20V356a20.248,20.248,0,0,0,.4,4H16a8,8,0,0,0-8,8v32a8,8,0,0,0,8,8H48.02a40,40,0,1,0,63.96,0H368.02a40,40,0,1,0,63.96,0H464a8,8,0,0,0,8-8V368a8,8,0,0,0-8-8H432V124a4,4,0,0,1,4-4h60a8,8,0,0,0,8-8V80A8,8,0,0,0,496,72ZM312,296a7.983,7.983,0,0,0,8-8V216h28a4,4,0,0,1,4,4V356a4,4,0,0,1-4,4H212a4,4,0,0,1-4-4V220a4,4,0,0,1,4-4h28v72a8,8,0,0,0,11.58,7.16L280,280.94l28.42,14.22A8.073,8.073,0,0,0,312,296Zm-8-80v59.06l-20.42-10.22a8.049,8.049,0,0,0-7.16,0L256,275.06V216ZM176,56h48v59.06l-20.42-10.22a8.049,8.049,0,0,0-7.16,0L176,115.06Zm-48,4a4,4,0,0,1,4-4h28v72a8,8,0,0,0,11.58,7.16L200,120.94l28.42,14.22A8,8,0,0,0,240,128V56h28a4,4,0,0,1,4,4V196a4,4,0,0,1-4,4H132a4,4,0,0,1-4-4ZM96,216h48v59.06l-20.42-10.22a8.049,8.049,0,0,0-7.16,0L96,275.06Zm-48,4a4,4,0,0,1,4-4H80v72a8,8,0,0,0,11.58,7.16L120,280.94l28.42,14.22A8,8,0,0,0,160,288V216h28a4,4,0,0,1,4,4V356a4,4,0,0,1-4,4H52a4,4,0,0,1-4-4ZM80,456a24,24,0,1,1,24-24A24.032,24.032,0,0,1,80,456Zm320,0a24,24,0,1,1,24-24A24.032,24.032,0,0,1,400,456Zm56-80v16H24V376Zm32-272H436a20.02,20.02,0,0,0-20,20V360H400V100a12.01,12.01,0,0,1,12-12h76Z" fill="#c1d2f0" data-original="#000000" style=""/></g></g></svg>
