<?xml version="1.0"?>
<svg xmlns="http://www.w3.org/2000/svg" xmlns:xlink="http://www.w3.org/1999/xlink" xmlns:svgjs="http://svgjs.com/svgjs" version="1.1" width="512" height="512" x="0" y="0" viewBox="0 0 512.001 512.001" style="enable-background:new 0 0 512 512" xml:space="preserve"><g><g xmlns="http://www.w3.org/2000/svg"><g><path d="m104.596 381.574c-17.625 0-31.965 14.339-31.965 31.965s14.339 31.965 31.965 31.965 31.965-14.339 31.965-31.965-14.339-31.965-31.965-31.965zm0 43.93c-6.598 0-11.965-5.367-11.965-11.965s5.367-11.965 11.965-11.965 11.965 5.367 11.965 11.965-5.367 11.965-11.965 11.965z" fill="#c1d2f0" data-original="#000000" style=""/><path d="m412.244 381.574c-17.625 0-31.965 14.339-31.965 31.965s14.34 31.965 31.965 31.965 31.965-14.339 31.965-31.965-14.34-31.965-31.965-31.965zm0 43.93c-6.598 0-11.965-5.367-11.965-11.965s5.367-11.965 11.965-11.965 11.965 5.367 11.965 11.965-5.368 11.965-11.965 11.965z" fill="#c1d2f0" data-original="#000000" style=""/><path d="m268.38 394.129c-2.065-5.041-8.042-7.488-13.06-5.41-5.032 2.083-7.499 8.025-5.41 13.06 2.086 5.029 8.027 7.498 13.06 5.41 5.022-2.083 7.504-8.034 5.41-13.06z" fill="#c1d2f0" data-original="#000000" style=""/><path d="m512.001 263.221c0-5.523-4.478-10-10-10h-45.144c-12.559 0-24.739 5.207-33.417 14.284-7.421 7.765-18.989 6.573-26.117-.744-8.731-8.732-20.341-13.541-32.689-13.541h-62.745c-5.522 0-10 4.477-10 10s4.478 10 10 10h62.745c7.007 0 13.594 2.728 18.547 7.683 14.958 15.23 39.625 16.209 54.717.422 4.924-5.15 11.834-8.104 18.96-8.104h35.144v47.097c-16.344-.699-32.831 3.342-46.979 11.568-20.484 11.915-45.941 11.915-66.393.025-25.926-15.26-59.032-15.456-85.247-.776-21.336 11.949-46.621 12.692-68.069.583-26.528-15.267-60.344-15.203-86.187.139-20.238 11.713-46.233 11.707-66.49.029-15.811-9.202-34.448-13.201-52.637-11.169v-47.496h194.001c5.523 0 10-4.477 10-10s-4.477-10-10-10h-204c-5.523 0-10 4.477-10 10l-.001 199.719c0 3.101 1.439 6.027 3.895 7.92 2.456 1.892 5.65 2.54 8.651 1.75 17.041-4.488 34.812-2.081 50.044 6.778 26.707 15.502 59.865 15.501 86.62-.052 19.902-11.831 45.949-11.811 66.354.049 26.691 15.514 59.852 15.513 86.542-.001 20.341-11.829 46.391-11.844 66.427.001 26.458 15.382 60.085 15.389 86.542 0 13.02-7.567 30.309-10.583 45.123-7.869 2.919.535 5.925-.255 8.204-2.155s3.598-4.714 3.598-7.681zm-66.978 198.875c-20.488 11.915-45.944 11.913-66.374.036-26.197-15.487-60.347-15.304-86.595-.037-20.179 11.728-46.258 11.729-66.439 0-26.582-15.451-60.584-15.43-86.54 0-20.167 11.723-46.247 11.721-66.437.001-16.12-9.376-34.428-13.204-52.638-11.169v-110.027c14.66-2.131 29.781.83 42.588 8.278 26.404 15.337 60.174 15.519 86.538-.003 19.934-11.586 46.02-11.576 66.473.02 26.538 15.409 59.726 15.052 86.387.051 20.377-11.469 46.241-12.08 66.55-.07 13.35 7.761 28.312 11.642 43.276 11.641 14.961 0 29.924-3.88 43.263-11.639 10.682-6.204 24.23-9.342 36.927-8.778v110.177c-16.264-.569-33.154 3.483-46.979 11.519z" fill="#c1d2f0" data-original="#000000" style=""/><path d="m77.459 193.901c19.057 19.669 51.444 19.928 70.812.56 19.15-19.15 19.151-51.111 0-70.26l-14.995-14.996c-11.441-11.441-11.442-30.535 0-41.976l17.201-17.2c12.165-12.165 32.465-12.164 44.63 0l2.035 2.035-2.13 2.13c-15.534 15.534-15.535 41.462 0 56.996 16.743 16.742 35.626 31.237 56.127 43.082 8.425 4.868 16.672 10.3 24.512 16.147.002.001.003.003.004.004 9.7 7.233 18.944 15.226 27.474 23.755 5.466 5.466 12.732 8.476 20.463 8.476 6.587 0 12.833-2.193 17.92-6.222l33.128 33.129c3.854 3.854 10.288 3.854 14.143 0 3.905-3.905 3.905-10.237 0-14.142l-33.13-33.131c8.964-11.348 8.218-27.91-2.253-38.382-8.528-8.527-16.521-17.77-23.756-27.473-5.848-7.842-11.282-16.091-16.151-24.518-11.845-20.501-26.34-39.385-43.082-56.127-15.714-15.712-41.281-15.713-56.996 0l-2.131 2.131-2.034-2.034c-19.873-19.874-53.041-19.875-72.915 0l-17.201 17.2c-19.149 19.15-19.151 51.111 0 70.261l14.995 14.996c11.442 11.442 11.442 30.534 0 41.976-11.59 11.59-30.931 11.405-42.329-.359l-72.136-73.95c-3.855-3.953-10.187-4.032-14.141-.175-3.953 3.856-4.032 10.188-.175 14.141zm261.798-23.21-9.346 9.346c-1.688 1.688-3.933 2.618-6.32 2.618s-4.632-.93-6.32-2.618c-6.505-6.504-13.393-12.718-20.566-18.559l23.994-23.994c5.841 7.175 12.055 14.063 18.558 20.566 3.485 3.486 3.486 9.156 0 12.641zm-97.344-126.695c5.198 0 10.398 1.979 14.356 5.937 15.508 15.508 28.935 33 39.908 51.99 3.82 6.613 7.962 13.122 12.363 19.435l-27.961 27.961c-6.312-4.401-12.822-8.543-19.435-12.364-18.989-10.972-36.482-24.398-51.991-39.907-7.824-7.824-7.823-20.888 0-28.711l18.403-18.403c3.959-3.959 9.157-5.938 14.357-5.938z" fill="#c1d2f0" data-original="#000000" style=""/><path d="m442.935 232.491c2.56 0 5.118-.977 7.071-2.929l24.532-24.533c3.905-3.905 3.905-10.237 0-14.142-3.906-3.905-10.236-3.905-14.143 0l-24.532 24.533c-3.905 3.905-3.905 10.237 0 14.142 1.954 1.953 4.512 2.929 7.072 2.929z" fill="#c1d2f0" data-original="#000000" style=""/><path d="m412.717 205.366c5.522 0 10-4.477 10-10v-34.695c0-5.523-4.478-10-10-10s-10 4.477-10 10v34.695c0 5.523 4.478 10 10 10z" fill="#c1d2f0" data-original="#000000" style=""/><path d="m267.46 257.669c-3.047-4.53-9.321-5.772-13.87-2.76-4.544 3.009-5.761 9.34-2.76 13.86 3.01 4.534 9.337 5.794 13.86 2.77 4.533-3.031 5.791-9.331 2.77-13.87z" fill="#c1d2f0" data-original="#000000" style=""/></g></g></g></svg>
