<?xml version="1.0"?>
<svg xmlns="http://www.w3.org/2000/svg" xmlns:xlink="http://www.w3.org/1999/xlink" xmlns:svgjs="http://svgjs.com/svgjs" version="1.1" width="512" height="512" x="0" y="0" viewBox="0 0 64 64" style="enable-background:new 0 0 512 512" xml:space="preserve" class=""><g><g xmlns="http://www.w3.org/2000/svg" id="outline"><path d="m59 13h-54a3 3 0 0 0 -3 3v28a3 3 0 0 0 3 3h2v3a1 1 0 0 0 1 1h4a1 1 0 0 0 1-1v-3h2v3a1 1 0 0 0 1 1h10a1 1 0 0 0 1-1v-3h2v3a1 1 0 0 0 1 1h4a1 1 0 0 0 1-1v-3h12v3a1 1 0 0 0 1 1h6a1 1 0 0 0 1-1v-3h4a3 3 0 0 0 3-3v-28a3 3 0 0 0 -3-3zm-48 36h-2v-2h2zm14 0h-8v-2h8zm8 0h-2v-2h2zm20 0h-4v-2h4zm7-5a1 1 0 0 1 -1 1h-54a1 1 0 0 1 -1-1v-28a1 1 0 0 1 1-1h54a1 1 0 0 1 1 1z" fill="#c1d2f0" data-original="#000000" style="" class=""/><path d="m9 23h6a3 3 0 0 0 0-6h-6a3 3 0 0 0 0 6zm0-4h6a1 1 0 0 1 0 2h-6a1 1 0 0 1 0-2z" fill="#c1d2f0" data-original="#000000" style="" class=""/><path d="m29 17h-6a3 3 0 0 0 0 6h6a3 3 0 0 0 0-6zm0 4h-6a1 1 0 0 1 0-2h6a1 1 0 0 1 0 2z" fill="#c1d2f0" data-original="#000000" style="" class=""/><path d="m39 17h-2a3 3 0 0 0 0 6h2a3 3 0 0 0 0-6zm0 4h-2a1 1 0 0 1 0-2h2a1 1 0 0 1 0 2z" fill="#c1d2f0" data-original="#000000" style="" class=""/><path d="m52 29h6v2h-6z" fill="#c1d2f0" data-original="#000000" style="" class=""/><path d="m44 29h6v2h-6z" fill="#c1d2f0" data-original="#000000" style="" class=""/><path d="m52 33h6v2h-6z" fill="#c1d2f0" data-original="#000000" style="" class=""/><path d="m44 33h6v2h-6z" fill="#c1d2f0" data-original="#000000" style="" class=""/><path d="m52 37h6v2h-6z" fill="#c1d2f0" data-original="#000000" style="" class=""/><path d="m44 37h6v2h-6z" fill="#c1d2f0" data-original="#000000" style="" class=""/><path d="m52 41h6v2h-6z" fill="#c1d2f0" data-original="#000000" style="" class=""/><path d="m44 41h6v2h-6z" fill="#c1d2f0" data-original="#000000" style="" class=""/><path d="m14 29h6v2h-6z" fill="#c1d2f0" data-original="#000000" style="" class=""/><path d="m6 29h6v2h-6z" fill="#c1d2f0" data-original="#000000" style="" class=""/><path d="m14 33h6v2h-6z" fill="#c1d2f0" data-original="#000000" style="" class=""/><path d="m6 33h6v2h-6z" fill="#c1d2f0" data-original="#000000" style="" class=""/><path d="m14 37h6v2h-6z" fill="#c1d2f0" data-original="#000000" style="" class=""/><path d="m6 37h6v2h-6z" fill="#c1d2f0" data-original="#000000" style="" class=""/><path d="m14 41h6v2h-6z" fill="#c1d2f0" data-original="#000000" style="" class=""/><path d="m6 41h6v2h-6z" fill="#c1d2f0" data-original="#000000" style="" class=""/><path d="m56 17h2v2h-2z" fill="#c1d2f0" data-original="#000000" style="" class=""/><path d="m52 17h2v2h-2z" fill="#c1d2f0" data-original="#000000" style="" class=""/></g></g></svg>
