<?xml version="1.0"?>
<svg xmlns="http://www.w3.org/2000/svg" xmlns:xlink="http://www.w3.org/1999/xlink" xmlns:svgjs="http://svgjs.com/svgjs" version="1.1" width="512" height="512" x="0" y="0" viewBox="0 0 448 448" style="enable-background:new 0 0 512 512" xml:space="preserve"><g>
<g xmlns="http://www.w3.org/2000/svg">
	<g>
		<path d="M432,97.392v24h-48v-24H240.496c-76.352,0-69.136-35.296-132.832-35.296C70.576,62.096,32,76.896,0,104.016l14.304,26.656    c44.912-15.872,70.144,6.496,96.96,21.536c-11.248,22.864-36.464,37.024-68.544,45.296l6.016,20.384    c95.44,10.544,117.872-45.68,141.536,9.808c11.504,25.424,19.104,82.32,114.192,158.208l12.208-6.24    c-34-48.208-58.16-97.152-66.704-127.408l80.432-90.864H384v-24h48v24h16v-64H432z M267.568,331.584    c-38.8-43.232-51.168-78.528-58.128-98.384c-28.608-81.552-65.456-30.464-133.968-29.888    c24.832-10.736,41.712-25.76,50.736-44.752c6.432,1.84,13.232,2.832,20.288,2.832h62.352c9.92,21.856,16.304,48.256,22.912,83.776    C235.808,266.864,249.024,298.224,267.568,331.584z M226.032,161.392h37.504l-26.992,30.992    C233.536,181.296,230.016,171.088,226.032,161.392z M245.664,232.976c-1.44-7.44-2.944-14.672-4.496-21.552l43.584-50.032h24.288    L245.664,232.976z M368,145.392H146.496c-40.704,0-58.144-47.04-124.08-33.44l-1.968-3.68    c26.752-19.536,57.296-30.176,87.2-30.176c26.192,0,42,8.704,57.296,17.104c40.336,22.192,37.84,18.192,203.056,18.192V145.392z" fill="#c1d2f0" data-original="#000000" style=""/>
	</g>
</g>
<g xmlns="http://www.w3.org/2000/svg">
	<g>
		<circle cx="141.04" cy="116.016" r="12" fill="#c1d2f0" data-original="#000000" style=""/>
	</g>
</g>
<g xmlns="http://www.w3.org/2000/svg">
</g>
<g xmlns="http://www.w3.org/2000/svg">
</g>
<g xmlns="http://www.w3.org/2000/svg">
</g>
<g xmlns="http://www.w3.org/2000/svg">
</g>
<g xmlns="http://www.w3.org/2000/svg">
</g>
<g xmlns="http://www.w3.org/2000/svg">
</g>
<g xmlns="http://www.w3.org/2000/svg">
</g>
<g xmlns="http://www.w3.org/2000/svg">
</g>
<g xmlns="http://www.w3.org/2000/svg">
</g>
<g xmlns="http://www.w3.org/2000/svg">
</g>
<g xmlns="http://www.w3.org/2000/svg">
</g>
<g xmlns="http://www.w3.org/2000/svg">
</g>
<g xmlns="http://www.w3.org/2000/svg">
</g>
<g xmlns="http://www.w3.org/2000/svg">
</g>
<g xmlns="http://www.w3.org/2000/svg">
</g>
</g></svg>
