<?xml version="1.0"?>
<svg xmlns="http://www.w3.org/2000/svg" xmlns:xlink="http://www.w3.org/1999/xlink" xmlns:svgjs="http://svgjs.com/svgjs" version="1.1" width="512" height="512" x="0" y="0" viewBox="0 0 512.063 512.063" style="enable-background:new 0 0 512 512" xml:space="preserve" class=""><g><g xmlns="http://www.w3.org/2000/svg" id="XMLID_1216_"><g id="XMLID_308_"><path id="XMLID_340_" d="m226.063 292.031c-20.953 0-38 17.047-38 38s17.047 38 38 38 38-17.047 38-38-17.047-38-38-38zm0 56c-9.925 0-18-8.075-18-18s8.075-18 18-18 18 8.075 18 18-8.075 18-18 18z" fill="#c1d2f0" data-original="#000000" style=""/><path id="XMLID_373_" d="m226.063 192.031c-20.953 0-38 17.047-38 38s17.047 38 38 38 38-17.047 38-38-17.047-38-38-38zm0 56c-9.925 0-18-8.075-18-18s8.075-18 18-18 18 8.075 18 18-8.075 18-18 18z" fill="#c1d2f0" data-original="#000000" style=""/><path id="XMLID_376_" d="m226.063 392.031c-20.953 0-38 17.047-38 38s17.047 38 38 38 38-17.047 38-38-17.047-38-38-38zm0 56c-9.925 0-18-8.075-18-18s8.075-18 18-18 18 8.075 18 18-8.075 18-18 18z" fill="#c1d2f0" data-original="#000000" style=""/><path id="XMLID_414_" d="m326.063 292.031c-20.953 0-38 17.047-38 38s17.047 38 38 38 38-17.047 38-38-17.047-38-38-38zm0 56c-9.925 0-18-8.075-18-18s8.075-18 18-18 18 8.075 18 18-8.075 18-18 18z" fill="#c1d2f0" data-original="#000000" style=""/><path id="XMLID_585_" d="m126.063 292.031c-20.953 0-38 17.047-38 38s17.047 38 38 38 38-17.047 38-38-17.047-38-38-38zm0 56c-9.925 0-18-8.075-18-18s8.075-18 18-18 18 8.075 18 18-8.075 18-18 18z" fill="#c1d2f0" data-original="#000000" style=""/><path id="XMLID_679_" d="m424.203 257.462c-10.393-5.79-22.267-7.593-33.674-5.324-24.839-52.234-73.836-90.846-132.466-101.288v-28.819h53.5c5.523 0 10-4.478 10-10s-4.477-10-10-10h-63.5c-5.523 0-10 4.478-10 10v36.406c-3.968-.26-7.967-.406-12-.406s-8.032.146-12 .406v-58.406c0-6.617 5.383-12 12-12h232c5.523 0 10-4.478 10-10v-58c0-5.522-4.477-10-10-10s-10 4.478-10 10v48h-222c-17.645 0-32 14.355-32 32v60.819c-58.63 10.442-107.628 49.055-132.466 101.289-11.425-2.271-23.318-.46-33.719 5.347-13.198 7.37-22.214 20.152-24.734 35.069-4.238 25.078-4.19 50.536.142 75.667 2.54 14.737 11.523 27.363 24.647 34.643 7.502 4.16 15.769 6.262 24.075 6.262 3.242 0 6.489-.325 9.699-.968 29.289 61.366 91.949 103.872 164.356 103.872s135.067-42.506 164.356-103.872c3.21.643 6.457.968 9.699.968 8.305 0 16.574-2.103 24.074-6.262 13.124-7.279 22.108-19.905 24.648-34.643 4.332-25.131 4.379-50.589.142-75.667-2.524-14.936-11.556-27.727-24.779-35.093zm-386.57 127.913c-7.798-4.325-13.133-11.814-14.639-20.549-3.947-22.899-3.991-46.094-.13-68.938 1.505-8.908 6.887-16.54 14.765-20.939 5.017-2.801 10.617-4.043 16.18-3.701-6.313 18.449-9.746 38.223-9.746 58.784 0 20.649 3.464 40.503 9.829 59.02-5.586.355-11.213-.877-16.259-3.677zm188.43 106.656c-89.327 0-162-72.673-162-162s72.673-162 162-162 162 72.673 162 162-72.673 162-162 162zm203.069-127.206c-1.506 8.735-6.842 16.225-14.64 20.55-5.046 2.8-10.673 4.031-16.258 3.675 6.365-18.516 9.828-38.37 9.828-59.019 0-20.562-3.432-40.336-9.746-58.785 5.552-.342 11.142.896 16.153 3.688 7.893 4.396 13.284 12.034 14.792 20.954 3.861 22.845 3.817 46.039-.129 68.937z" fill="#c1d2f0" data-original="#000000" style=""/><path id="XMLID_859_" d="m502.063.031c-5.523 0-10 4.478-10 10v80c0 6.617-5.383 12-12 12h-78.5c-5.523 0-10 4.478-10 10s4.477 10 10 10h78.5c17.645 0 32-14.355 32-32v-80c0-5.522-4.477-10-10-10z" fill="#c1d2f0" data-original="#000000" style=""/><path id="XMLID_873_" d="m349.494 104.961c-1.87 1.86-2.93 4.44-2.93 7.07s1.06 5.21 2.93 7.069c1.86 1.86 4.44 2.931 7.07 2.931s5.21-1.07 7.07-2.931c1.86-1.859 2.93-4.439 2.93-7.069s-1.07-5.21-2.93-7.07-4.44-2.93-7.07-2.93-5.21 1.07-7.07 2.93z" fill="#c1d2f0" data-original="#000000" style=""/></g></g></g></svg>
