<?xml version="1.0"?>
<svg xmlns="http://www.w3.org/2000/svg" xmlns:xlink="http://www.w3.org/1999/xlink" xmlns:svgjs="http://svgjs.com/svgjs" version="1.1" width="512" height="512" x="0" y="0" viewBox="0 0 512 512" style="enable-background:new 0 0 512 512" xml:space="preserve"><g>
<g xmlns="http://www.w3.org/2000/svg">
	<g>
		<path d="M475,438H370c-14.061,0-25.5,11.439-25.5,25.5v1.5H37.583C27.888,465,20,457.112,20,447.417    c0-9.696,7.888-17.584,17.583-17.584h76.75c5.522,0,10-4.478,10-10c0-5.522-4.478-10-10-10h-76.75    C16.859,409.833,0,426.693,0,447.417S16.859,485,37.583,485H344.5v1.5c0,14.061,11.439,25.5,25.5,25.5h105    c20.402,0,37-16.598,37-37C512,454.598,495.402,438,475,438z M448,492h-78c-3.033,0-5.5-2.467-5.5-5.5v-23    c0-3.033,2.467-5.5,5.5-5.5h78V492z M475,492h-7v-34h7c9.374,0,17,7.626,17,17C492,484.374,484.374,492,475,492z" fill="#c1d2f0" data-original="#000000" style=""/>
	</g>
</g>
<g xmlns="http://www.w3.org/2000/svg">
	<g>
		<path d="M164.74,412.76c-1.86-1.86-4.44-2.93-7.07-2.93c-2.64,0-5.21,1.069-7.07,2.93c-1.87,1.86-2.93,4.44-2.93,7.07    s1.06,5.21,2.93,7.069c1.86,1.87,4.44,2.931,7.07,2.931s5.2-1.061,7.07-2.931c1.859-1.859,2.93-4.439,2.93-7.069    S166.6,414.62,164.74,412.76z" fill="#c1d2f0" data-original="#000000" style=""/>
	</g>
</g>
<g xmlns="http://www.w3.org/2000/svg">
	<g>
		<path d="M462.069,165.93C460.21,164.069,457.63,163,455,163s-5.21,1.069-7.07,2.93c-1.86,1.861-2.93,4.44-2.93,7.07    s1.069,5.21,2.93,7.069c1.86,1.86,4.44,2.931,7.07,2.931s5.21-1.07,7.069-2.931C463.93,178.21,465,175.63,465,173    S463.93,167.79,462.069,165.93z" fill="#c1d2f0" data-original="#000000" style=""/>
	</g>
</g>
<g xmlns="http://www.w3.org/2000/svg">
	<g>
		<path d="M455,138c5.522,0,10-4.478,10-10V50c0-27.57-22.43-50-50-50H97C69.43,0,47,22.43,47,50v254c0,27.57,22.43,50,50,50h109    v29.6c-15.576,4.684-26.958,19.151-26.958,36.233V432c0,5.522,4.478,10,10,10h133.916c5.522,0,10-4.478,10-10v-12.167    c0-17.082-11.382-31.549-26.958-36.233V354h109c27.57,0,50-22.43,50-50v-90.333c0-5.522-4.478-10-10-10c-5.522,0-10,4.478-10,10    V304c0,16.542-13.458,30-30,30H97c-16.542,0-30-13.458-30-30V50c0-16.542,13.458-30,30-30h318c16.542,0,30,13.458,30,30v78    C445,133.522,449.478,138,455,138z M226,354h60v28h-60V354z M295.125,402c9.833,0,17.833,8,17.833,17.833V422H199.042v-2.167    c0-9.833,8-17.833,17.833-17.833H295.125z" fill="#c1d2f0" data-original="#000000" style=""/>
	</g>
</g>
<g xmlns="http://www.w3.org/2000/svg">
	<g>
		<path d="M405,40H107c-11.028,0-20,8.972-20,20v234c0,11.028,8.972,20,20,20h298c11.028,0,20-8.972,20-20V60    C425,48.972,416.028,40,405,40z M405,294H107V60h298l0.013,233.999C405.013,293.999,405.009,294,405,294z" fill="#c1d2f0" data-original="#000000" style=""/>
	</g>
</g>
<g xmlns="http://www.w3.org/2000/svg">
	<g>
		<path d="M382.791,197.553l-77.153-98.035c-3.02-3.837-8.369-4.933-12.656-2.59c-22.811,12.473-51.152,12.473-73.963,0    c-4.288-2.345-9.637-1.247-12.656,2.59l-77.152,98.035c-3.133,3.98-2.794,9.674,0.787,13.256    c34.739,34.738,80.371,52.107,126.003,52.107c45.632,0,91.264-17.369,126.003-52.107    C385.585,207.227,385.924,201.534,382.791,197.553z M150.57,202.751l66.519-84.523c24.633,10.707,53.189,10.707,77.822,0    l66.519,84.523C301.58,256.313,210.42,256.313,150.57,202.751z" fill="#c1d2f0" data-original="#000000" style=""/>
	</g>
</g>
<g xmlns="http://www.w3.org/2000/svg">
	<g>
		<path d="M172.333,80H137c-5.522,0-10,4.478-10,10c0,5.522,4.478,10,10,10h35.333c5.522,0,10-4.478,10-10    C182.333,84.478,177.855,80,172.333,80z" fill="#c1d2f0" data-original="#000000" style=""/>
	</g>
</g>
<g xmlns="http://www.w3.org/2000/svg">
	<g>
		<path d="M144.069,120.93C142.21,119.07,139.63,118,137,118s-5.21,1.069-7.07,2.93S127,125.37,127,128s1.069,5.21,2.93,7.069    c1.86,1.861,4.44,2.931,7.07,2.931s5.21-1.07,7.069-2.931C145.93,133.21,147,130.63,147,128S145.93,122.79,144.069,120.93z" fill="#c1d2f0" data-original="#000000" style=""/>
	</g>
</g>
<g xmlns="http://www.w3.org/2000/svg">
</g>
<g xmlns="http://www.w3.org/2000/svg">
</g>
<g xmlns="http://www.w3.org/2000/svg">
</g>
<g xmlns="http://www.w3.org/2000/svg">
</g>
<g xmlns="http://www.w3.org/2000/svg">
</g>
<g xmlns="http://www.w3.org/2000/svg">
</g>
<g xmlns="http://www.w3.org/2000/svg">
</g>
<g xmlns="http://www.w3.org/2000/svg">
</g>
<g xmlns="http://www.w3.org/2000/svg">
</g>
<g xmlns="http://www.w3.org/2000/svg">
</g>
<g xmlns="http://www.w3.org/2000/svg">
</g>
<g xmlns="http://www.w3.org/2000/svg">
</g>
<g xmlns="http://www.w3.org/2000/svg">
</g>
<g xmlns="http://www.w3.org/2000/svg">
</g>
<g xmlns="http://www.w3.org/2000/svg">
</g>
</g></svg>
